<?xml version="1.0" encoding="iso-8859-1"?>
<!-- Generator: Adobe Illustrator 19.0.0, SVG Export Plug-In . SVG Version: 6.00 Build 0)  -->
<svg version="1.1" id="Layer_1" xmlns="http://www.w3.org/2000/svg" xmlns:xlink="http://www.w3.org/1999/xlink" x="0px" y="0px"
	 viewBox="0 0 512 512" style="enable-background:new 0 0 512 512;" xml:space="preserve">
<path style="fill:#6FB0B6;" d="M133.632,360.73c20.838,73.31,62.217,124.22,107.989,132.838l10.112,1.911V349.867h-121.19
	L133.632,360.73z"/>
<path style="fill:#8CC0C5;" d="M384.623,334.507c5.248-25.745,7.91-52.156,7.91-78.507s-2.662-52.762-7.91-78.507l-1.399-6.827
	H260.267v170.667h122.957L384.623,334.507z"/>
<path style="fill:#6FB0B6;" d="M381.457,349.867h-121.19v145.613l10.112-1.911c45.773-8.627,87.151-59.537,107.989-132.838
	L381.457,349.867z"/>
<path style="fill:#A9D0D3;" d="M389.973,162.133h86.084l-6.17-12.348c-26.59-53.188-71.68-94.43-126.976-116.113l-9.404,13.713
	c24.055,26.172,43.008,63.659,54.784,108.39L389.973,162.133z"/>
<path style="fill:#8CC0C5;" d="M480.777,176.333l-2.022-5.666h-86.81l1.92,10.129c4.779,25.207,7.202,50.5,7.202,75.204
	s-2.423,49.997-7.202,75.204l-1.92,10.129h86.81l2.022-5.666c9.395-26.342,14.157-53.154,14.157-79.667
	S490.172,202.675,480.777,176.333z"/>
<path style="fill:#6FB0B6;" d="M388.292,356.224c-11.785,44.732-30.729,82.219-54.784,108.39l9.404,13.713
	c55.287-21.683,100.386-62.925,126.976-116.113l6.17-12.348h-86.084L388.292,356.224z"/>
<path style="fill:#A9D0D3;" d="M378.368,151.27c-20.838-73.31-62.217-124.22-107.989-132.847l-10.112-1.903v145.613h121.19
	L378.368,151.27z"/>
<path style="fill:#6FB0B6;" d="M122.027,349.867H35.942l6.17,12.348c26.59,53.188,71.68,94.43,126.976,116.113l9.404-13.713
	c-24.055-26.172-43.008-63.659-54.784-108.39L122.027,349.867z"/>
<g>
	<path style="fill:#8CC0C5;" d="M127.377,177.493c-5.248,25.745-7.91,52.156-7.91,78.507s2.662,52.762,7.91,78.507l1.399,6.827
		h122.957V170.667H128.777L127.377,177.493z"/>
	<path style="fill:#8CC0C5;" d="M118.135,331.204c-4.779-25.207-7.202-50.5-7.202-75.204s2.423-49.997,7.202-75.204l1.92-10.129
		h-86.81l-2.022,5.666C21.828,202.675,17.067,229.487,17.067,256c0,26.513,4.762,53.325,14.157,79.667l2.022,5.666h86.81
		L118.135,331.204z"/>
</g>
<g>
	<path style="fill:#A9D0D3;" d="M123.708,155.776c11.785-44.732,30.729-82.219,54.784-108.39l-9.404-13.713
		C113.801,55.356,68.702,96.597,42.112,149.786l-6.17,12.348h86.084L123.708,155.776z"/>
	<path style="fill:#A9D0D3;" d="M133.632,151.27l-3.089,10.863h121.19V16.521l-10.112,1.911
		C195.849,27.051,154.47,77.961,133.632,151.27z"/>
</g>
<path style="fill:#573A32;" d="M256,0C114.62,0,0,114.62,0,256s114.62,256,256,256s256-114.62,256-256S397.38,0,256,0z
	 M172.211,41.609c-24.934,27.119-44.681,66.125-56.755,111.991H49.749C75.179,102.741,118.869,62.524,172.211,41.609z M25.6,256
	c0-26.999,5.077-52.727,13.662-76.8h70.494c-4.608,24.294-7.356,49.963-7.356,76.8s2.748,52.506,7.347,76.8H39.262
	C30.677,308.727,25.6,282.999,25.6,256z M49.749,358.4h65.707c12.083,45.867,31.821,84.873,56.755,111.991
	C118.869,449.476,75.179,409.259,49.749,358.4z M243.2,485.188c-43.81-8.252-81.877-58.24-101.359-126.788H243.2V485.188z
	 M243.2,332.8H135.74c-4.924-24.166-7.74-49.997-7.74-76.8s2.816-52.634,7.74-76.8H243.2V332.8z M243.2,153.6H141.841
	C161.323,85.052,199.39,35.063,243.2,26.812V153.6z M268.8,26.812c43.81,8.252,81.877,58.24,101.359,126.788H268.8V26.812z
	 M268.8,179.2h107.46c4.924,24.166,7.74,49.997,7.74,76.8s-2.816,52.634-7.74,76.8H268.8V179.2z M268.8,485.188V358.4h101.359
	C350.677,426.948,312.61,476.937,268.8,485.188z M339.789,470.392c24.934-27.128,44.672-66.125,56.755-111.991h65.707
	C436.821,409.259,393.131,449.476,339.789,470.392z M486.4,256c0,26.999-5.077,52.727-13.662,76.8h-70.494
	c4.608-24.294,7.356-49.963,7.356-76.8s-2.748-52.506-7.347-76.8h70.494C481.323,203.273,486.4,229.001,486.4,256z M396.544,153.6
	c-12.083-45.867-31.821-84.873-56.755-111.991c53.342,20.915,97.033,61.133,122.462,111.991H396.544z"/>
<g>
</g>
<g>
</g>
<g>
</g>
<g>
</g>
<g>
</g>
<g>
</g>
<g>
</g>
<g>
</g>
<g>
</g>
<g>
</g>
<g>
</g>
<g>
</g>
<g>
</g>
<g>
</g>
<g>
</g>
</svg>
